<svg width="153" height="135" viewBox="0 0 153 135" fill="none" xmlns="http://www.w3.org/2000/svg">
<circle cx="78.5" cy="67.5" r="66.5" stroke="#DFE2EB" stroke-width="2"/>
<path d="M61.6685 95H50.2383V50.9404L36.5933 55.1724V45.8779L60.4424 37.335H61.6685V95ZM119.175 71.1904C119.175 79.1533 117.527 85.2441 114.231 89.4629C110.936 93.6816 106.11 95.791 99.7559 95.791C93.4805 95.791 88.6816 93.7212 85.3594 89.5815C82.0371 85.4419 80.3364 79.5093 80.2573 71.7837V61.1841C80.2573 53.1421 81.9185 47.0381 85.2407 42.8721C88.5894 38.7061 93.4014 36.623 99.6768 36.623C105.952 36.623 110.751 38.6929 114.073 42.8325C117.396 46.9458 119.096 52.8652 119.175 60.5908V71.1904ZM107.745 59.5625C107.745 54.79 107.086 51.3228 105.768 49.1606C104.476 46.9722 102.445 45.8779 99.6768 45.8779C96.9873 45.8779 94.9966 46.9194 93.7046 49.0024C92.439 51.0591 91.7666 54.2891 91.6875 58.6924V72.6934C91.6875 77.3867 92.3203 80.8804 93.5859 83.1743C94.8779 85.4419 96.9346 86.5757 99.7559 86.5757C102.551 86.5757 104.568 85.4814 105.807 83.293C107.046 81.1045 107.692 77.7559 107.745 73.2471V59.5625Z" fill="#FE5815"/>
<path d="M61.6685 95H50.2383V50.9404L36.5933 55.1724V45.8779L60.4424 37.335H61.6685V95ZM119.175 71.1904C119.175 79.1533 117.527 85.2441 114.231 89.4629C110.936 93.6816 106.11 95.791 99.7559 95.791C93.4805 95.791 88.6816 93.7212 85.3594 89.5815C82.0371 85.4419 80.3364 79.5093 80.2573 71.7837V61.1841C80.2573 53.1421 81.9185 47.0381 85.2407 42.8721C88.5894 38.7061 93.4014 36.623 99.6768 36.623C105.952 36.623 110.751 38.6929 114.073 42.8325C117.396 46.9458 119.096 52.8652 119.175 60.5908V71.1904ZM107.745 59.5625C107.745 54.79 107.086 51.3228 105.768 49.1606C104.476 46.9722 102.445 45.8779 99.6768 45.8779C96.9873 45.8779 94.9966 46.9194 93.7046 49.0024C92.439 51.0591 91.7666 54.2891 91.6875 58.6924V72.6934C91.6875 77.3867 92.3203 80.8804 93.5859 83.1743C94.8779 85.4419 96.9346 86.5757 99.7559 86.5757C102.551 86.5757 104.568 85.4814 105.807 83.293C107.046 81.1045 107.692 77.7559 107.745 73.2471V59.5625Z" fill="#FE5815"/>
</svg>
