<svg width="153" height="135" viewBox="0 0 153 135" fill="none" xmlns="http://www.w3.org/2000/svg">
<circle cx="85.5" cy="67.5" r="66.5" stroke="#DFE2EB" stroke-width="2"/>
<path d="M61.6685 99H50.2383V54.9404L36.5933 59.1724V49.8779L60.4424 41.335H61.6685V99ZM114.231 77.3262H120.757V86.5415H114.231V99H102.801V86.5415H79.1895L78.6753 79.3433L102.683 41.4141H114.231V77.3262ZM90.0659 77.3262H102.801V56.9971L102.05 58.3022L90.0659 77.3262Z" fill="#FE5815"/>
<path d="M61.6685 99H50.2383V54.9404L36.5933 59.1724V49.8779L60.4424 41.335H61.6685V99ZM114.231 77.3262H120.757V86.5415H114.231V99H102.801V86.5415H79.1895L78.6753 79.3433L102.683 41.4141H114.231V77.3262ZM90.0659 77.3262H102.801V56.9971L102.05 58.3022L90.0659 77.3262Z" fill="#FE5815"/>
</svg>
