<svg width="153" height="96" viewBox="0 0 153 96" fill="none" xmlns="http://www.w3.org/2000/svg">
<path d="M56.8906 31H41.2969V27.9062L48.6562 20.0625C49.6667 18.9583 50.4115 17.9948 50.8906 17.1719C51.3802 16.349 51.625 15.5677 51.625 14.8281C51.625 13.8177 51.3698 13.026 50.8594 12.4531C50.349 11.8698 49.6198 11.5781 48.6719 11.5781C47.651 11.5781 46.8438 11.9323 46.25 12.6406C45.6667 13.3385 45.375 14.2604 45.375 15.4062H40.8438C40.8438 14.0208 41.1719 12.7552 41.8281 11.6094C42.4948 10.4635 43.4323 9.56771 44.6406 8.92188C45.849 8.26562 47.2188 7.9375 48.75 7.9375C51.0938 7.9375 52.9115 8.5 54.2031 9.625C55.5052 10.75 56.1562 12.3385 56.1562 14.3906C56.1562 15.5156 55.8646 16.6615 55.2812 17.8281C54.6979 18.9948 53.6979 20.3542 52.2812 21.9062L47.1094 27.3594H56.8906V31ZM75.2656 31H59.6719V27.9062L67.0312 20.0625C68.0417 18.9583 68.7865 17.9948 69.2656 17.1719C69.7552 16.349 70 15.5677 70 14.8281C70 13.8177 69.7448 13.026 69.2344 12.4531C68.724 11.8698 67.9948 11.5781 67.0469 11.5781C66.026 11.5781 65.2188 11.9323 64.625 12.6406C64.0417 13.3385 63.75 14.2604 63.75 15.4062H59.2188C59.2188 14.0208 59.5469 12.7552 60.2031 11.6094C60.8698 10.4635 61.8073 9.56771 63.0156 8.92188C64.224 8.26562 65.5938 7.9375 67.125 7.9375C69.4688 7.9375 71.2865 8.5 72.5781 9.625C73.8802 10.75 74.5312 12.3385 74.5312 14.3906C74.5312 15.5156 74.2396 16.6615 73.6562 17.8281C73.0729 18.9948 72.0729 20.3542 70.6562 21.9062L65.4844 27.3594H75.2656V31ZM93.6406 31H78.0469V27.9062L85.4062 20.0625C86.4167 18.9583 87.1615 17.9948 87.6406 17.1719C88.1302 16.349 88.375 15.5677 88.375 14.8281C88.375 13.8177 88.1198 13.026 87.6094 12.4531C87.099 11.8698 86.3698 11.5781 85.4219 11.5781C84.401 11.5781 83.5938 11.9323 83 12.6406C82.4167 13.3385 82.125 14.2604 82.125 15.4062H77.5938C77.5938 14.0208 77.9219 12.7552 78.5781 11.6094C79.2448 10.4635 80.1823 9.56771 81.3906 8.92188C82.599 8.26562 83.9688 7.9375 85.5 7.9375C87.8438 7.9375 89.6615 8.5 90.9531 9.625C92.2552 10.75 92.9062 12.3385 92.9062 14.3906C92.9062 15.5156 92.6146 16.6615 92.0312 17.8281C91.4479 18.9948 90.4479 20.3542 89.0312 21.9062L83.8594 27.3594H93.6406V31ZM112.016 31H96.4219V27.9062L103.781 20.0625C104.792 18.9583 105.536 17.9948 106.016 17.1719C106.505 16.349 106.75 15.5677 106.75 14.8281C106.75 13.8177 106.495 13.026 105.984 12.4531C105.474 11.8698 104.745 11.5781 103.797 11.5781C102.776 11.5781 101.969 11.9323 101.375 12.6406C100.792 13.3385 100.5 14.2604 100.5 15.4062H95.9688C95.9688 14.0208 96.2969 12.7552 96.9531 11.6094C97.6198 10.4635 98.5573 9.56771 99.7656 8.92188C100.974 8.26562 102.344 7.9375 103.875 7.9375C106.219 7.9375 108.036 8.5 109.328 9.625C110.63 10.75 111.281 12.3385 111.281 14.3906C111.281 15.5156 110.99 16.6615 110.406 17.8281C109.823 18.9948 108.823 20.3542 107.406 21.9062L102.234 27.3594H112.016V31Z" fill="#FE5815"/>
<path d="M56.8906 31H41.2969V27.9062L48.6562 20.0625C49.6667 18.9583 50.4115 17.9948 50.8906 17.1719C51.3802 16.349 51.625 15.5677 51.625 14.8281C51.625 13.8177 51.3698 13.026 50.8594 12.4531C50.349 11.8698 49.6198 11.5781 48.6719 11.5781C47.651 11.5781 46.8438 11.9323 46.25 12.6406C45.6667 13.3385 45.375 14.2604 45.375 15.4062H40.8438C40.8438 14.0208 41.1719 12.7552 41.8281 11.6094C42.4948 10.4635 43.4323 9.56771 44.6406 8.92188C45.849 8.26562 47.2188 7.9375 48.75 7.9375C51.0938 7.9375 52.9115 8.5 54.2031 9.625C55.5052 10.75 56.1562 12.3385 56.1562 14.3906C56.1562 15.5156 55.8646 16.6615 55.2812 17.8281C54.6979 18.9948 53.6979 20.3542 52.2812 21.9062L47.1094 27.3594H56.8906V31ZM75.2656 31H59.6719V27.9062L67.0312 20.0625C68.0417 18.9583 68.7865 17.9948 69.2656 17.1719C69.7552 16.349 70 15.5677 70 14.8281C70 13.8177 69.7448 13.026 69.2344 12.4531C68.724 11.8698 67.9948 11.5781 67.0469 11.5781C66.026 11.5781 65.2188 11.9323 64.625 12.6406C64.0417 13.3385 63.75 14.2604 63.75 15.4062H59.2188C59.2188 14.0208 59.5469 12.7552 60.2031 11.6094C60.8698 10.4635 61.8073 9.56771 63.0156 8.92188C64.224 8.26562 65.5938 7.9375 67.125 7.9375C69.4688 7.9375 71.2865 8.5 72.5781 9.625C73.8802 10.75 74.5312 12.3385 74.5312 14.3906C74.5312 15.5156 74.2396 16.6615 73.6562 17.8281C73.0729 18.9948 72.0729 20.3542 70.6562 21.9062L65.4844 27.3594H75.2656V31ZM93.6406 31H78.0469V27.9062L85.4062 20.0625C86.4167 18.9583 87.1615 17.9948 87.6406 17.1719C88.1302 16.349 88.375 15.5677 88.375 14.8281C88.375 13.8177 88.1198 13.026 87.6094 12.4531C87.099 11.8698 86.3698 11.5781 85.4219 11.5781C84.401 11.5781 83.5938 11.9323 83 12.6406C82.4167 13.3385 82.125 14.2604 82.125 15.4062H77.5938C77.5938 14.0208 77.9219 12.7552 78.5781 11.6094C79.2448 10.4635 80.1823 9.56771 81.3906 8.92188C82.599 8.26562 83.9688 7.9375 85.5 7.9375C87.8438 7.9375 89.6615 8.5 90.9531 9.625C92.2552 10.75 92.9062 12.3385 92.9062 14.3906C92.9062 15.5156 92.6146 16.6615 92.0312 17.8281C91.4479 18.9948 90.4479 20.3542 89.0312 21.9062L83.8594 27.3594H93.6406V31ZM112.016 31H96.4219V27.9062L103.781 20.0625C104.792 18.9583 105.536 17.9948 106.016 17.1719C106.505 16.349 106.75 15.5677 106.75 14.8281C106.75 13.8177 106.495 13.026 105.984 12.4531C105.474 11.8698 104.745 11.5781 103.797 11.5781C102.776 11.5781 101.969 11.9323 101.375 12.6406C100.792 13.3385 100.5 14.2604 100.5 15.4062H95.9688C95.9688 14.0208 96.2969 12.7552 96.9531 11.6094C97.6198 10.4635 98.5573 9.56771 99.7656 8.92188C100.974 8.26562 102.344 7.9375 103.875 7.9375C106.219 7.9375 108.036 8.5 109.328 9.625C110.63 10.75 111.281 12.3385 111.281 14.3906C111.281 15.5156 110.99 16.6615 110.406 17.8281C109.823 18.9948 108.823 20.3542 107.406 21.9062L102.234 27.3594H112.016V31Z" fill="#FE5815"/>
<path d="M76.5254 45.3643L78.8359 41.2637H82.7588L78.8486 47.9922L82.9238 55H78.9883L76.5381 50.6836L74.1006 55H70.1523L74.2275 47.9922L70.3301 41.2637H74.2656L76.5254 45.3643Z" fill="#FE5815"/>
<path d="M76.5254 45.3643L78.8359 41.2637H82.7588L78.8486 47.9922L82.9238 55H78.9883L76.5381 50.6836L74.1006 55H70.1523L74.2275 47.9922L70.3301 41.2637H74.2656L76.5254 45.3643Z" fill="#FE5815"/>
<path d="M61.4531 86H56.9375V68.5938L51.5469 70.2656V66.5938L60.9688 63.2188H61.4531V86ZM84.1719 76.5938C84.1719 79.7396 83.5208 82.1458 82.2188 83.8125C80.9167 85.4792 79.0104 86.3125 76.5 86.3125C74.0208 86.3125 72.125 85.4948 70.8125 83.8594C69.5 82.224 68.8281 79.8802 68.7969 76.8281V72.6406C68.7969 69.4635 69.4531 67.0521 70.7656 65.4062C72.0885 63.7604 73.9896 62.9375 76.4688 62.9375C78.9479 62.9375 80.8438 63.7552 82.1562 65.3906C83.4688 67.0156 84.1406 69.3542 84.1719 72.4062V76.5938ZM79.6562 72C79.6562 70.1146 79.3958 68.7448 78.875 67.8906C78.3646 67.026 77.5625 66.5938 76.4688 66.5938C75.4062 66.5938 74.6198 67.0052 74.1094 67.8281C73.6094 68.6406 73.3438 69.9167 73.3125 71.6562V77.1875C73.3125 79.0417 73.5625 80.4219 74.0625 81.3281C74.5729 82.224 75.3854 82.6719 76.5 82.6719C77.6042 82.6719 78.401 82.2396 78.8906 81.375C79.3802 80.5104 79.6354 79.1875 79.6562 77.4062V72ZM102.547 76.5938C102.547 79.7396 101.896 82.1458 100.594 83.8125C99.2917 85.4792 97.3854 86.3125 94.875 86.3125C92.3958 86.3125 90.5 85.4948 89.1875 83.8594C87.875 82.224 87.2031 79.8802 87.1719 76.8281V72.6406C87.1719 69.4635 87.8281 67.0521 89.1406 65.4062C90.4635 63.7604 92.3646 62.9375 94.8438 62.9375C97.3229 62.9375 99.2188 63.7552 100.531 65.3906C101.844 67.0156 102.516 69.3542 102.547 72.4062V76.5938ZM98.0312 72C98.0312 70.1146 97.7708 68.7448 97.25 67.8906C96.7396 67.026 95.9375 66.5938 94.8438 66.5938C93.7812 66.5938 92.9948 67.0052 92.4844 67.8281C91.9844 68.6406 91.7188 69.9167 91.6875 71.6562V77.1875C91.6875 79.0417 91.9375 80.4219 92.4375 81.3281C92.9479 82.224 93.7604 82.6719 94.875 82.6719C95.9792 82.6719 96.776 82.2396 97.2656 81.375C97.7552 80.5104 98.0104 79.1875 98.0312 77.4062V72Z" fill="#FE5815"/>
<path d="M61.4531 86H56.9375V68.5938L51.5469 70.2656V66.5938L60.9688 63.2188H61.4531V86ZM84.1719 76.5938C84.1719 79.7396 83.5208 82.1458 82.2188 83.8125C80.9167 85.4792 79.0104 86.3125 76.5 86.3125C74.0208 86.3125 72.125 85.4948 70.8125 83.8594C69.5 82.224 68.8281 79.8802 68.7969 76.8281V72.6406C68.7969 69.4635 69.4531 67.0521 70.7656 65.4062C72.0885 63.7604 73.9896 62.9375 76.4688 62.9375C78.9479 62.9375 80.8438 63.7552 82.1562 65.3906C83.4688 67.0156 84.1406 69.3542 84.1719 72.4062V76.5938ZM79.6562 72C79.6562 70.1146 79.3958 68.7448 78.875 67.8906C78.3646 67.026 77.5625 66.5938 76.4688 66.5938C75.4062 66.5938 74.6198 67.0052 74.1094 67.8281C73.6094 68.6406 73.3438 69.9167 73.3125 71.6562V77.1875C73.3125 79.0417 73.5625 80.4219 74.0625 81.3281C74.5729 82.224 75.3854 82.6719 76.5 82.6719C77.6042 82.6719 78.401 82.2396 78.8906 81.375C79.3802 80.5104 79.6354 79.1875 79.6562 77.4062V72ZM102.547 76.5938C102.547 79.7396 101.896 82.1458 100.594 83.8125C99.2917 85.4792 97.3854 86.3125 94.875 86.3125C92.3958 86.3125 90.5 85.4948 89.1875 83.8594C87.875 82.224 87.2031 79.8802 87.1719 76.8281V72.6406C87.1719 69.4635 87.8281 67.0521 89.1406 65.4062C90.4635 63.7604 92.3646 62.9375 94.8438 62.9375C97.3229 62.9375 99.2188 63.7552 100.531 65.3906C101.844 67.0156 102.516 69.3542 102.547 72.4062V76.5938ZM98.0312 72C98.0312 70.1146 97.7708 68.7448 97.25 67.8906C96.7396 67.026 95.9375 66.5938 94.8438 66.5938C93.7812 66.5938 92.9948 67.0052 92.4844 67.8281C91.9844 68.6406 91.7188 69.9167 91.6875 71.6562V77.1875C91.6875 79.0417 91.9375 80.4219 92.4375 81.3281C92.9479 82.224 93.7604 82.6719 94.875 82.6719C95.9792 82.6719 96.776 82.2396 97.2656 81.375C97.7552 80.5104 98.0104 79.1875 98.0312 77.4062V72Z" fill="#FE5815"/>
</svg>
