<svg width="153" height="135" viewBox="0 0 153 135" fill="none" xmlns="http://www.w3.org/2000/svg">
<circle cx="76.5" cy="67.5" r="66.5" stroke="#DFE2EB" stroke-width="2"/>
<path d="M73.3755 99H33.9038V91.1689L52.5322 71.3145C55.0898 68.5195 56.9751 66.0806 58.188 63.9976C59.4272 61.9146 60.0469 59.937 60.0469 58.0649C60.0469 55.5073 59.4009 53.5034 58.1089 52.0532C56.8169 50.5767 54.9712 49.8384 52.5718 49.8384C49.9878 49.8384 47.9443 50.7349 46.4414 52.5278C44.9648 54.2944 44.2266 56.6279 44.2266 59.5283H32.7568C32.7568 56.0215 33.5874 52.8179 35.2485 49.9175C36.936 47.0171 39.3091 44.7495 42.3677 43.1147C45.4263 41.4536 48.8936 40.623 52.7695 40.623C58.7021 40.623 63.3032 42.0469 66.5728 44.8945C69.8687 47.7422 71.5166 51.7632 71.5166 56.9575C71.5166 59.8052 70.7783 62.7056 69.3018 65.6587C67.8252 68.6118 65.2939 72.0527 61.708 75.9814L48.6167 89.7847H73.3755V99ZM107.152 75.9814C104.172 78.9082 100.692 80.3716 96.7104 80.3716C91.6216 80.3716 87.5479 78.6313 84.4893 75.1509C81.4307 71.644 79.9014 66.9243 79.9014 60.9917C79.9014 57.2212 80.7188 53.7671 82.3535 50.6294C84.0146 47.4653 86.3218 45.0132 89.2749 43.2729C92.228 41.5063 95.5503 40.623 99.2417 40.623C103.039 40.623 106.414 41.5723 109.367 43.4707C112.32 45.3691 114.614 48.0981 116.249 51.6577C117.883 55.2173 118.714 59.291 118.74 63.8789V68.1108C118.74 77.7085 116.354 85.2495 111.582 90.7339C106.809 96.2183 100.046 99.145 91.292 99.5142L88.4839 99.5537V90.022L91.0151 89.9824C100.956 89.5342 106.334 84.8672 107.152 75.9814ZM99.5186 71.6309C101.364 71.6309 102.946 71.1562 104.265 70.207C105.609 69.2578 106.625 68.1108 107.31 66.7661V62.0596C107.31 58.1836 106.572 55.1777 105.095 53.042C103.619 50.9062 101.641 49.8384 99.1626 49.8384C96.8687 49.8384 94.9834 50.8931 93.5068 53.0024C92.0303 55.0854 91.292 57.709 91.292 60.873C91.292 64.0107 92.0039 66.5947 93.4277 68.625C94.8779 70.6289 96.9082 71.6309 99.5186 71.6309Z" fill="#FE5815"/>
<path d="M73.3755 99H33.9038V91.1689L52.5322 71.3145C55.0898 68.5195 56.9751 66.0806 58.188 63.9976C59.4272 61.9146 60.0469 59.937 60.0469 58.0649C60.0469 55.5073 59.4009 53.5034 58.1089 52.0532C56.8169 50.5767 54.9712 49.8384 52.5718 49.8384C49.9878 49.8384 47.9443 50.7349 46.4414 52.5278C44.9648 54.2944 44.2266 56.6279 44.2266 59.5283H32.7568C32.7568 56.0215 33.5874 52.8179 35.2485 49.9175C36.936 47.0171 39.3091 44.7495 42.3677 43.1147C45.4263 41.4536 48.8936 40.623 52.7695 40.623C58.7021 40.623 63.3032 42.0469 66.5728 44.8945C69.8687 47.7422 71.5166 51.7632 71.5166 56.9575C71.5166 59.8052 70.7783 62.7056 69.3018 65.6587C67.8252 68.6118 65.2939 72.0527 61.708 75.9814L48.6167 89.7847H73.3755V99ZM107.152 75.9814C104.172 78.9082 100.692 80.3716 96.7104 80.3716C91.6216 80.3716 87.5479 78.6313 84.4893 75.1509C81.4307 71.644 79.9014 66.9243 79.9014 60.9917C79.9014 57.2212 80.7188 53.7671 82.3535 50.6294C84.0146 47.4653 86.3218 45.0132 89.2749 43.2729C92.228 41.5063 95.5503 40.623 99.2417 40.623C103.039 40.623 106.414 41.5723 109.367 43.4707C112.32 45.3691 114.614 48.0981 116.249 51.6577C117.883 55.2173 118.714 59.291 118.74 63.8789V68.1108C118.74 77.7085 116.354 85.2495 111.582 90.7339C106.809 96.2183 100.046 99.145 91.292 99.5142L88.4839 99.5537V90.022L91.0151 89.9824C100.956 89.5342 106.334 84.8672 107.152 75.9814ZM99.5186 71.6309C101.364 71.6309 102.946 71.1562 104.265 70.207C105.609 69.2578 106.625 68.1108 107.31 66.7661V62.0596C107.31 58.1836 106.572 55.1777 105.095 53.042C103.619 50.9062 101.641 49.8384 99.1626 49.8384C96.8687 49.8384 94.9834 50.8931 93.5068 53.0024C92.0303 55.0854 91.292 57.709 91.292 60.873C91.292 64.0107 92.0039 66.5947 93.4277 68.625C94.8779 70.6289 96.9082 71.6309 99.5186 71.6309Z" fill="#374A59"/>
</svg>
