<svg width="153" height="135" viewBox="0 0 153 135" fill="none" xmlns="http://www.w3.org/2000/svg">
<circle cx="76.5" cy="67.5" r="66.5" stroke="#DFE2EB" stroke-width="2"/>
<path d="M48.8145 86H22.5V80.7793L34.9189 67.543C36.624 65.6797 37.8809 64.0537 38.6895 62.665C39.5156 61.2764 39.9287 59.958 39.9287 58.71C39.9287 57.0049 39.498 55.6689 38.6367 54.7021C37.7754 53.7178 36.5449 53.2256 34.9453 53.2256C33.2227 53.2256 31.8604 53.8232 30.8584 55.0186C29.874 56.1963 29.3818 57.752 29.3818 59.6855H21.7354C21.7354 57.3477 22.2891 55.2119 23.3965 53.2783C24.5215 51.3447 26.1035 49.833 28.1426 48.7432C30.1816 47.6357 32.4932 47.082 35.0771 47.082C39.0322 47.082 42.0996 48.0312 44.2793 49.9297C46.4766 51.8281 47.5752 54.5088 47.5752 57.9717C47.5752 59.8701 47.083 61.8037 46.0986 63.7725C45.1143 65.7412 43.4268 68.0352 41.0361 70.6543L32.3086 79.8564H48.8145V86ZM54.6416 67.1211L56.8564 47.6094H78.3721V53.9639H63.1055L62.1562 62.2168C63.9668 61.25 65.8916 60.7666 67.9307 60.7666C71.5869 60.7666 74.4521 61.9004 76.5264 64.168C78.6006 66.4355 79.6377 69.6084 79.6377 73.6865C79.6377 76.165 79.1104 78.3887 78.0557 80.3574C77.0186 82.3086 75.5244 83.8291 73.5732 84.9189C71.6221 85.9912 69.3193 86.5273 66.665 86.5273C64.3447 86.5273 62.1914 86.0615 60.2051 85.1299C58.2188 84.1807 56.6455 82.8535 55.4854 81.1484C54.3428 79.4434 53.7363 77.501 53.666 75.3213H61.207C61.3652 76.9209 61.9189 78.1689 62.8682 79.0654C63.835 79.9443 65.0918 80.3838 66.6387 80.3838C68.3613 80.3838 69.6885 79.7686 70.6201 78.5381C71.5518 77.29 72.0176 75.5322 72.0176 73.2646C72.0176 71.085 71.4814 69.415 70.4092 68.2549C69.3369 67.0947 67.8164 66.5146 65.8477 66.5146C64.0371 66.5146 62.5693 66.9893 61.4443 67.9385L60.7061 68.624L54.6416 67.1211ZM87.2314 89.2959H81.5625L95.6953 47.6094H101.364L87.2314 89.2959ZM105.847 67.1211L108.062 47.6094H129.577V53.9639H114.311L113.361 62.2168C115.172 61.25 117.097 60.7666 119.136 60.7666C122.792 60.7666 125.657 61.9004 127.731 64.168C129.806 66.4355 130.843 69.6084 130.843 73.6865C130.843 76.165 130.315 78.3887 129.261 80.3574C128.224 82.3086 126.729 83.8291 124.778 84.9189C122.827 85.9912 120.524 86.5273 117.87 86.5273C115.55 86.5273 113.396 86.0615 111.41 85.1299C109.424 84.1807 107.851 82.8535 106.69 81.1484C105.548 79.4434 104.941 77.501 104.871 75.3213H112.412C112.57 76.9209 113.124 78.1689 114.073 79.0654C115.04 79.9443 116.297 80.3838 117.844 80.3838C119.566 80.3838 120.894 79.7686 121.825 78.5381C122.757 77.29 123.223 75.5322 123.223 73.2646C123.223 71.085 122.687 69.415 121.614 68.2549C120.542 67.0947 119.021 66.5146 117.053 66.5146C115.242 66.5146 113.774 66.9893 112.649 67.9385L111.911 68.624L105.847 67.1211Z" fill="#FE5815"/>
<path d="M48.8145 86H22.5V80.7793L34.9189 67.543C36.624 65.6797 37.8809 64.0537 38.6895 62.665C39.5156 61.2764 39.9287 59.958 39.9287 58.71C39.9287 57.0049 39.498 55.6689 38.6367 54.7021C37.7754 53.7178 36.5449 53.2256 34.9453 53.2256C33.2227 53.2256 31.8604 53.8232 30.8584 55.0186C29.874 56.1963 29.3818 57.752 29.3818 59.6855H21.7354C21.7354 57.3477 22.2891 55.2119 23.3965 53.2783C24.5215 51.3447 26.1035 49.833 28.1426 48.7432C30.1816 47.6357 32.4932 47.082 35.0771 47.082C39.0322 47.082 42.0996 48.0312 44.2793 49.9297C46.4766 51.8281 47.5752 54.5088 47.5752 57.9717C47.5752 59.8701 47.083 61.8037 46.0986 63.7725C45.1143 65.7412 43.4268 68.0352 41.0361 70.6543L32.3086 79.8564H48.8145V86ZM54.6416 67.1211L56.8564 47.6094H78.3721V53.9639H63.1055L62.1562 62.2168C63.9668 61.25 65.8916 60.7666 67.9307 60.7666C71.5869 60.7666 74.4521 61.9004 76.5264 64.168C78.6006 66.4355 79.6377 69.6084 79.6377 73.6865C79.6377 76.165 79.1104 78.3887 78.0557 80.3574C77.0186 82.3086 75.5244 83.8291 73.5732 84.9189C71.6221 85.9912 69.3193 86.5273 66.665 86.5273C64.3447 86.5273 62.1914 86.0615 60.2051 85.1299C58.2188 84.1807 56.6455 82.8535 55.4854 81.1484C54.3428 79.4434 53.7363 77.501 53.666 75.3213H61.207C61.3652 76.9209 61.9189 78.1689 62.8682 79.0654C63.835 79.9443 65.0918 80.3838 66.6387 80.3838C68.3613 80.3838 69.6885 79.7686 70.6201 78.5381C71.5518 77.29 72.0176 75.5322 72.0176 73.2646C72.0176 71.085 71.4814 69.415 70.4092 68.2549C69.3369 67.0947 67.8164 66.5146 65.8477 66.5146C64.0371 66.5146 62.5693 66.9893 61.4443 67.9385L60.7061 68.624L54.6416 67.1211ZM87.2314 89.2959H81.5625L95.6953 47.6094H101.364L87.2314 89.2959ZM105.847 67.1211L108.062 47.6094H129.577V53.9639H114.311L113.361 62.2168C115.172 61.25 117.097 60.7666 119.136 60.7666C122.792 60.7666 125.657 61.9004 127.731 64.168C129.806 66.4355 130.843 69.6084 130.843 73.6865C130.843 76.165 130.315 78.3887 129.261 80.3574C128.224 82.3086 126.729 83.8291 124.778 84.9189C122.827 85.9912 120.524 86.5273 117.87 86.5273C115.55 86.5273 113.396 86.0615 111.41 85.1299C109.424 84.1807 107.851 82.8535 106.69 81.1484C105.548 79.4434 104.941 77.501 104.871 75.3213H112.412C112.57 76.9209 113.124 78.1689 114.073 79.0654C115.04 79.9443 116.297 80.3838 117.844 80.3838C119.566 80.3838 120.894 79.7686 121.825 78.5381C122.757 77.29 123.223 75.5322 123.223 73.2646C123.223 71.085 122.687 69.415 121.614 68.2549C120.542 67.0947 119.021 66.5146 117.053 66.5146C115.242 66.5146 113.774 66.9893 112.649 67.9385L111.911 68.624L105.847 67.1211Z" fill="#374A59"/>
</svg>
